D:\school\WTK\thesis\model\3dpredictsim\Results\batch_windlass\Pog_s1_tmt_aCst_d05_k500_WL30_ig24_act_TTC_GRF.mot
nRows=20
nColumns=19

name D:\school\WTK\thesis\model\3dpredictsim\Results\batch_windlass\Pog_s1_tmt_aCst_d05_k500_WL30_ig24_act_TTC_GRF.mot
datacolumns 19
datarows 20
range 0.0000000000 0.2228910102
endheader
time 	ground_force_vx	ground_force_vy	ground_force_vz	ground_force_px	ground_force_py	ground_force_pz	1_ground_force_vx	1_ground_force_vy	1_ground_force_vz	1_ground_force_px	1_ground_force_py	1_ground_force_pz	ground_torque_x	ground_torque_y	ground_torque_z	1_ground_torque_x	1_ground_torque_y	1_ground_torque_z
        0.0000000000	      -38.6509940328	       25.2854695832	        5.9161197886	        0.1476649507	        0.0000000000	        0.0626524754	       94.9869245045	      425.5122111689	        0.9773927758	       -0.3518379668	        0.0000000000	       -0.0330464625	        0.0000000000	        0.0000000000	        0.0000000000	        0.0000000000	        0.0000000000	        0.0000000000	
        0.0117311058	      -79.8511945523	       61.7215810297	       15.5096860713	        0.1628796866	        0.0000000000	        0.0607055622	       67.1580591322	      331.4957853594	       -3.4249786203	       -0.3438464916	        0.0000000000	       -0.0292737342	        0.0000000000	        0.0000000000	        0.0000000000	        0.0000000000	        0.0000000000	        0.0000000000	
        0.0234622116	     -147.5743118818	      150.6146390762	       42.1872718733	        0.1746416707	        0.0000000000	        0.0598749674	       46.0986146386	      246.7403433819	      -15.6972177564	       -0.3341895067	        0.0000000000	       -0.0246389203	        0.0000000000	        0.0000000000	        0.0000000000	        0.0000000000	        0.0000000000	        0.0000000000	
        0.0351933174	      -74.3340758699	      396.2630948455	        8.0148224412	        0.1922243823	        0.0000000000	        0.0608153585	       36.8707899732	      207.7699410910	      -19.1890152358	       -0.3311439823	        0.0000000000	       -0.0229627403	        0.0000000000	        0.0000000000	        0.0000000000	        0.0000000000	        0.0000000000	        0.0000000000	
        0.0469244232	      -86.4328430738	      675.6712393323	      -16.6201004742	        0.2015911159	        0.0000000000	        0.0619816809	       31.9366297373	      170.3542907740	      -16.4901760720	       -0.3310777668	        0.0000000000	       -0.0228371051	        0.0000000000	        0.0000000000	        0.0000000000	        0.0000000000	        0.0000000000	        0.0000000000	
        0.0586555290	     -117.1727764779	      842.8250468476	      -24.5467974229	        0.2096470322	        0.0000000000	        0.0621173165	       22.9850203200	      120.8337507021	      -15.4831405841	       -0.3309938175	        0.0000000000	       -0.0229131327	        0.0000000000	        0.0000000000	        0.0000000000	        0.0000000000	        0.0000000000	        0.0000000000	
        0.0703866348	     -148.5925797588	      920.8663318465	      -25.3452685242	        0.2205311327	        0.0000000000	        0.0611571820	        0.8844039607	       66.5355058440	      -13.7832978585	       -0.3324685117	        0.0000000000	       -0.0232748012	        0.0000000000	        0.0000000000	        0.0000000000	        0.0000000000	        0.0000000000	        0.0000000000	
        0.0821177406	     -145.1175549256	      917.6400655746	      -23.7253571688	        0.2291903652	        0.0000000000	        0.0599911177	       -8.1815422469	       11.5497986389	       -2.1917844757	       -0.3367828348	        0.0000000000	       -0.0223999982	        0.0000000000	        0.0000000000	        0.0000000000	        0.0000000000	        0.0000000000	        0.0000000000	
        0.0938488464	     -127.5935538143	      859.4819851149	      -22.1314179444	        0.2343752599	        0.0000000000	        0.0591241649	       -6.9797635384	        5.8886640759	        0.4872405372	        0.0000000000	        0.0000000000	        0.0000000000	        0.0000000000	        0.0000000000	        0.0000000000	        0.0000000000	        0.0000000000	        0.0000000000	
        0.1055799522	     -110.9359468688	      799.3505319422	      -20.2724774292	        0.2382445823	        0.0000000000	        0.0585645358	       -7.3328712629	        5.2785490849	        0.5900647225	        0.0000000000	        0.0000000000	        0.0000000000	        0.0000000000	        0.0000000000	        0.0000000000	        0.0000000000	        0.0000000000	        0.0000000000	
        0.1173110580	      -97.0618304222	      754.9829950168	      -20.6675457980	        0.2417597651	        0.0000000000	        0.0581543621	       -6.0741257620	        3.8655449130	        0.5108149067	        0.0000000000	        0.0000000000	        0.0000000000	        0.0000000000	        0.0000000000	        0.0000000000	        0.0000000000	        0.0000000000	        0.0000000000	
        0.1290421638	      -83.9905684565	      719.1094688754	      -20.9164728871	        0.2450832063	        0.0000000000	        0.0578514290	       -4.5338308862	        2.6283388309	        0.3952494756	        0.0000000000	        0.0000000000	        0.0000000000	        0.0000000000	        0.0000000000	        0.0000000000	        0.0000000000	        0.0000000000	        0.0000000000	
        0.1407732696	      -72.0220382868	      689.7404936923	      -20.6473556370	        0.2487239257	        0.0000000000	        0.0575924446	       -3.1662257936	        1.7007126337	        0.2701316341	        0.0000000000	        0.0000000000	        0.0000000000	        0.0000000000	        0.0000000000	        0.0000000000	        0.0000000000	        0.0000000000	        0.0000000000	
        0.1525043754	      -61.4535454204	      666.5920573894	      -20.8171009210	        0.2533436181	        0.0000000000	        0.0572484178	       -2.5288586877	        1.2823103136	        0.2101896849	        0.0000000000	        0.0000000000	        0.0000000000	        0.0000000000	        0.0000000000	        0.0000000000	        0.0000000000	        0.0000000000	        0.0000000000	
        0.1642354812	      -53.3589010571	      647.7952580809	      -21.0290860273	        0.2587105278	        0.0000000000	        0.0567915794	       -1.8312837460	        0.8889443395	        0.1469186813	        0.0000000000	        0.0000000000	        0.0000000000	        0.0000000000	        0.0000000000	        0.0000000000	        0.0000000000	        0.0000000000	        0.0000000000	
        0.1759665870	      -46.5870918754	      632.6852528974	      -21.2432063359	        0.2645749584	        0.0000000000	        0.0562318409	       -1.2750049107	        0.5979496355	        0.0984067846	        0.0000000000	        0.0000000000	        0.0000000000	        0.0000000000	        0.0000000000	        0.0000000000	        0.0000000000	        0.0000000000	        0.0000000000	
        0.1876976928	      -40.8060342986	      619.3111468027	      -21.2168218036	        0.2707234366	        0.0000000000	        0.0555874700	       -0.9159998531	        0.4181772594	        0.0676053920	        0.0000000000	        0.0000000000	        0.0000000000	        0.0000000000	        0.0000000000	        0.0000000000	        0.0000000000	        0.0000000000	        0.0000000000	
        0.1994287986	      -36.7291983149	      608.0859228936	      -21.0149928266	        0.2768900699	        0.0000000000	        0.0548928113	       -0.7035606829	        0.3143079906	        0.0490144055	        0.0000000000	        0.0000000000	        0.0000000000	        0.0000000000	        0.0000000000	        0.0000000000	        0.0000000000	        0.0000000000	        0.0000000000	
        0.2111599044	      -33.5861007316	      599.6296608478	      -20.7281994118	        0.2829230472	        0.0000000000	        0.0541758468	       -0.5833495315	        0.2558293706	        0.0380030638	        0.0000000000	        0.0000000000	        0.0000000000	        0.0000000000	        0.0000000000	        0.0000000000	        0.0000000000	        0.0000000000	        0.0000000000	
        0.2228910102	      -30.2633488595	      592.4452264822	      -20.3127371398	        0.2887406521	        0.0000000000	        0.0534532186	       -0.5225066135	        0.2253536974	        0.0315545200	        0.0000000000	        0.0000000000	        0.0000000000	        0.0000000000	        0.0000000000	        0.0000000000	        0.0000000000	        0.0000000000	        0.0000000000	
